<svg width="20" height="20" viewBox="0 0 20 20" fill="none" xmlns="http://www.w3.org/2000/svg">
<path d="M13.4116 11.6256C13.5154 11.5565 13.6349 11.5144 13.7591 11.5031C13.8834 11.4918 14.0085 11.5117 14.1231 11.5609L18.5444 13.5419C18.6934 13.6055 18.8177 13.7158 18.8989 13.856C18.98 13.9963 19.0135 14.1591 18.9944 14.32C18.8487 15.4085 18.3127 16.407 17.486 17.1299C16.6593 17.8528 15.5982 18.2508 14.5 18.25C11.1185 18.25 7.87548 16.9067 5.48439 14.5156C3.0933 12.1245 1.75 8.88149 1.75 5.49998C1.74916 4.4018 2.1472 3.34068 2.87009 2.51398C3.59298 1.68728 4.59152 1.15126 5.68 1.0056C5.84091 0.986489 6.00368 1.02 6.14395 1.10112C6.28422 1.18224 6.39444 1.30661 6.45813 1.4556L8.43906 5.8806C8.48774 5.99426 8.50756 6.11818 8.49676 6.24134C8.48596 6.36451 8.44489 6.48309 8.37719 6.58654L6.37375 8.96873C6.30269 9.07596 6.26066 9.1998 6.25179 9.32814C6.24291 9.45648 6.26749 9.58492 6.32313 9.70092C7.09844 11.2881 8.73906 12.909 10.3309 13.6769C10.4475 13.7322 10.5766 13.7563 10.7053 13.7466C10.834 13.7369 10.958 13.6938 11.065 13.6215L13.4116 11.6256Z" stroke="#343D46" stroke-width="2" stroke-linecap="round" stroke-linejoin="round"/>
</svg>
