<svg width="15" height="14" viewBox="0 0 15 14" fill="none" xmlns="http://www.w3.org/2000/svg">
<path d="M6.5 12.5C6.5 12.6978 6.44135 12.8911 6.33147 13.0556C6.22159 13.22 6.06541 13.3482 5.88268 13.4239C5.69996 13.4996 5.49889 13.5194 5.30491 13.4808C5.11093 13.4422 4.93275 13.347 4.79289 13.2071C4.65304 13.0673 4.5578 12.8891 4.51921 12.6951C4.48063 12.5011 4.50043 12.3 4.57612 12.1173C4.65181 11.9346 4.77998 11.7784 4.94443 11.6685C5.10888 11.5586 5.30222 11.5 5.5 11.5C5.76522 11.5 6.01957 11.6054 6.20711 11.7929C6.39464 11.9804 6.5 12.2348 6.5 12.5ZM12 11.5C11.8022 11.5 11.6089 11.5586 11.4444 11.6685C11.28 11.7784 11.1518 11.9346 11.0761 12.1173C11.0004 12.3 10.9806 12.5011 11.0192 12.6951C11.0578 12.8891 11.153 13.0673 11.2929 13.2071C11.4327 13.347 11.6109 13.4422 11.8049 13.4808C11.9989 13.5194 12.2 13.4996 12.3827 13.4239C12.5654 13.3482 12.7216 13.22 12.8315 13.0556C12.9414 12.8911 13 12.6978 13 12.5C13 12.2348 12.8946 11.9804 12.7071 11.7929C12.5196 11.6054 12.2652 11.5 12 11.5ZM14.9819 3.63375L13.3794 9.40125C13.2913 9.71631 13.1028 9.99404 12.8426 10.1923C12.5824 10.3906 12.2646 10.4986 11.9375 10.5H5.76C5.43189 10.4999 5.11284 10.3924 4.8515 10.194C4.59016 9.99564 4.40087 9.71723 4.3125 9.40125L2.12 1.5H1C0.867392 1.5 0.740215 1.44732 0.646447 1.35355C0.552678 1.25979 0.5 1.13261 0.5 1C0.5 0.867392 0.552678 0.740215 0.646447 0.646447C0.740215 0.552678 0.867392 0.5 1 0.5H2.5C2.60931 0.499979 2.71562 0.535782 2.80265 0.601929C2.88968 0.668075 2.95263 0.76092 2.98187 0.86625L3.57437 3H14.5C14.5771 2.99999 14.6531 3.01779 14.7222 3.05203C14.7912 3.08627 14.8515 3.13601 14.8981 3.19737C14.9448 3.25873 14.9766 3.33004 14.9911 3.40574C15.0057 3.48144 15.0025 3.55948 14.9819 3.63375ZM13.8419 4H3.8525L5.27812 9.13375C5.30737 9.23908 5.37032 9.33192 5.45735 9.39807C5.54438 9.46422 5.65069 9.50002 5.76 9.5H11.9375C12.0468 9.50002 12.1531 9.46422 12.2402 9.39807C12.3272 9.33192 12.3901 9.23908 12.4194 9.13375L13.8419 4Z" fill="black"/>
</svg>
