<svg width="22" height="22" viewBox="0 0 22 22" fill="none" xmlns="http://www.w3.org/2000/svg">
<path d="M20.9709 1.9544C21.0071 1.82611 21.0084 1.6905 20.9747 1.56153C20.9411 1.43256 20.8736 1.3149 20.7794 1.22065C20.6851 1.1264 20.5675 1.05897 20.4385 1.0253C20.3095 0.991629 20.1739 0.992939 20.0456 1.02909L2.04562 6.48722C1.89866 6.52869 1.76787 6.61403 1.67072 6.73183C1.57356 6.84964 1.51468 6.99429 1.50194 7.14645C1.4892 7.29861 1.52321 7.45104 1.59942 7.58335C1.67564 7.71567 1.79042 7.82157 1.92843 7.8869L10.125 11.875L14.1131 20.0707C14.1785 20.2087 14.2844 20.3235 14.4167 20.3997C14.549 20.4759 14.7014 20.5099 14.8536 20.4971C15.0057 20.4844 15.1504 20.4255 15.2682 20.3284C15.386 20.2312 15.4713 20.1004 15.5128 19.9535L20.9709 1.9544Z" stroke="white" stroke-width="2" stroke-linecap="round" stroke-linejoin="round"/>
</svg>
